<?xml version="1.0" encoding="UTF-8" standalone="no"?>
<!-- Created with Inkscape (http://www.inkscape.org/) -->

<svg
   xmlns:dc="http://purl.org/dc/elements/1.1/"
   xmlns:cc="http://creativecommons.org/ns#"
   xmlns:rdf="http://www.w3.org/1999/02/22-rdf-syntax-ns#"
   xmlns:svg="http://www.w3.org/2000/svg"
   xmlns="http://www.w3.org/2000/svg"
   xmlns:sodipodi="http://sodipodi.sourceforge.net/DTD/sodipodi-0.dtd"
   xmlns:inkscape="http://www.inkscape.org/namespaces/inkscape"
   width="60.959999mm"
   height="128.5mm"
   viewBox="0 0 60.960004 128.50002"
   version="1.1"
   id="svg8"
   inkscape:version="0.92.2 5c3e80d, 2017-08-06"
   sodipodi:docname="ChordController.svg"
   inkscape:export-filename="/Users/trevorwilson/Downloads/ChordController.png"
   inkscape:export-xdpi="119.98287"
   inkscape:export-ydpi="119.98287">
  <defs
     id="defs2" />
  <sodipodi:namedview
     id="base"
     pagecolor="#ffffff"
     bordercolor="#666666"
     borderopacity="1.0"
     inkscape:pageopacity="0.0"
     inkscape:pageshadow="2"
     inkscape:zoom="1.979899"
     inkscape:cx="99.622174"
     inkscape:cy="140.96643"
     inkscape:document-units="mm"
     inkscape:current-layer="layer1"
     showgrid="false"
     units="mm"
     inkscape:snap-bbox="true"
     inkscape:snap-page="true"
     inkscape:bbox-nodes="true"
     inkscape:snap-bbox-edge-midpoints="false"
     inkscape:window-width="1440"
     inkscape:window-height="856"
     inkscape:window-x="0"
     inkscape:window-y="-22"
     inkscape:window-maximized="0"
     inkscape:snap-bbox-midpoints="true"
     inkscape:snap-nodes="false"
     showguides="true"
     inkscape:guide-bbox="true"
     inkscape:snap-object-midpoints="true"
     inkscape:snap-center="true"
     inkscape:measure-start="324.259,42.4264"
     inkscape:measure-end="322.239,93.9442"
     inkscape:bbox-paths="true">
    <sodipodi:guide
       position="15.240001,102.69015"
       orientation="1,0"
       id="guide845"
       inkscape:locked="false" />
    <sodipodi:guide
       position="25.494659,119.16448"
       orientation="0,1"
       id="guide847"
       inkscape:locked="false" />
    <sodipodi:guide
       position="30.480004,64.250016"
       orientation="1,0"
       id="guide853"
       inkscape:locked="false" />
    <sodipodi:guide
       position="60.960007,99.987002"
       orientation="0,1"
       id="guide859"
       inkscape:locked="false"
       inkscape:label=""
       inkscape:color="rgb(0,0,255)" />
    <sodipodi:guide
       position="45.720002,10.967506"
       orientation="1,0"
       id="guide867"
       inkscape:locked="false" />
    <sodipodi:guide
       position="15.24,20.492507"
       orientation="0,1"
       id="guide881"
       inkscape:locked="false"
       inkscape:label=""
       inkscape:color="rgb(0,0,255)" />
    <sodipodi:guide
       position="45.720002,36.36751"
       orientation="0,1"
       id="guide883"
       inkscape:locked="false"
       inkscape:label=""
       inkscape:color="rgb(0,0,255)" />
    <sodipodi:guide
       position="45.720002,80.937"
       orientation="0,1"
       id="guide889"
       inkscape:locked="false" />
    <sodipodi:guide
       position="45.720002,61.887002"
       orientation="0,1"
       id="guide891"
       inkscape:locked="false" />
    <sodipodi:guide
       position="14.649319,91.318267"
       orientation="0,1"
       id="guide897"
       inkscape:locked="false"
       inkscape:label=""
       inkscape:color="rgb(0,0,255)" />
    <sodipodi:guide
       position="14.649319,53.218261"
       orientation="0,1"
       id="guide899"
       inkscape:locked="false"
       inkscape:label=""
       inkscape:color="rgb(0,0,255)" />
    <sodipodi:guide
       position="14.649319,72.268264"
       orientation="0,1"
       id="guide901"
       inkscape:locked="false" />
    <sodipodi:guide
       position="30.480004,42.837022"
       orientation="0,1"
       id="guide3642"
       inkscape:locked="false"
       inkscape:label=""
       inkscape:color="rgb(0,0,255)" />
  </sodipodi:namedview>
  <metadata
     id="metadata5">
    <rdf:RDF>
      <cc:Work
         rdf:about="">
        <dc:format>image/svg+xml</dc:format>
        <dc:type
           rdf:resource="http://purl.org/dc/dcmitype/StillImage" />
        <dc:title></dc:title>
      </cc:Work>
    </rdf:RDF>
  </metadata>
  <g
     inkscape:label="Layer 1"
     inkscape:groupmode="layer"
     id="layer1"
     transform="translate(0,-168.49998)">
    <rect
       style="display:inline;opacity:1;vector-effect:none;fill:#e6e6e6;fill-opacity:1;fill-rule:evenodd;stroke:none;stroke-width:0.91833144;stroke-linecap:butt;stroke-linejoin:miter;stroke-miterlimit:4;stroke-dasharray:none;stroke-dashoffset:0;stroke-opacity:1;paint-order:normal"
       id="rect420"
       width="60.959999"
       height="128.5"
       x="5.9211732e-17"
       y="168.49997" />
    <text
       xml:space="preserve"
       style="font-style:normal;font-variant:normal;font-weight:normal;font-stretch:normal;font-size:4.23333311px;line-height:1.25;font-family:Futura;-inkscape-font-specification:Futura;letter-spacing:0px;word-spacing:0px;fill:#000000;fill-opacity:1;stroke:none;stroke-width:0.26458332"
       x="12.505385"
       y="179.83832"
       id="text857"><tspan
         sodipodi:role="line"
         id="tspan855"
         x="12.505385"
         y="179.83832"
         style="font-size:4.93888903px;stroke-width:0.26458332">chord controller</tspan></text>
    <text
       xml:space="preserve"
       style="font-style:normal;font-variant:normal;font-weight:normal;font-stretch:normal;font-size:4.23333311px;line-height:1.25;font-family:Futura;-inkscape-font-specification:Futura;letter-spacing:0px;word-spacing:0px;fill:#000000;fill-opacity:1;stroke:none;stroke-width:0.26458332"
       x="11.429724"
       y="277.81317"
       id="text2886"><tspan
         sodipodi:role="line"
         id="tspan2884"
         x="11.429724"
         y="277.81317"
         style="font-size:3.52777767px;stroke-width:0.26458332">out 1</tspan></text>
    <text
       id="text2890"
       y="277.81317"
       x="26.669724"
       style="font-style:normal;font-variant:normal;font-weight:normal;font-stretch:normal;font-size:4.23333311px;line-height:1.25;font-family:Futura;-inkscape-font-specification:Futura;letter-spacing:0px;word-spacing:0px;fill:#000000;fill-opacity:1;stroke:none;stroke-width:0.26458332"
       xml:space="preserve"><tspan
         style="font-size:3.52777767px;stroke-width:0.26458332"
         y="277.81317"
         x="26.669724"
         id="tspan2888"
         sodipodi:role="line">out 2</tspan></text>
    <text
       id="text3622"
       y="261.73834"
       x="24.97043"
       style="font-style:normal;font-variant:normal;font-weight:normal;font-stretch:normal;font-size:4.23333311px;line-height:1.25;font-family:Futura;-inkscape-font-specification:Futura;letter-spacing:0px;word-spacing:0px;fill:#000000;fill-opacity:1;stroke:none;stroke-width:0.26458332"
       xml:space="preserve"><tspan
         style="font-size:3.52777767px;stroke-width:0.26458332"
         y="261.73834"
         x="24.97043"
         id="tspan3620"
         sodipodi:role="line">1v/oct</tspan></text>
    <text
       xml:space="preserve"
       style="font-style:normal;font-variant:normal;font-weight:normal;font-stretch:normal;font-size:4.23333311px;line-height:1.25;font-family:Futura;-inkscape-font-specification:Futura;letter-spacing:0px;word-spacing:0px;fill:#000000;fill-opacity:1;stroke:none;stroke-width:0.26458332"
       x="41.651337"
       y="277.81317"
       id="text3628"><tspan
         sodipodi:role="line"
         id="tspan3626"
         x="41.651337"
         y="277.81317"
         style="font-size:3.52777767px;stroke-width:0.26458332">out 3</tspan></text>
    <text
       id="text3632"
       y="293.68817"
       x="11.161006"
       style="font-style:normal;font-variant:normal;font-weight:normal;font-stretch:normal;font-size:4.23333311px;line-height:1.25;font-family:Futura;-inkscape-font-specification:Futura;letter-spacing:0px;word-spacing:0px;fill:#000000;fill-opacity:1;stroke:none;stroke-width:0.26458332"
       xml:space="preserve"><tspan
         style="font-size:3.52777767px;stroke-width:0.26458332"
         y="293.68817"
         x="11.161006"
         id="tspan3630"
         sodipodi:role="line">out 4</tspan></text>
    <text
       xml:space="preserve"
       style="font-style:normal;font-variant:normal;font-weight:normal;font-stretch:normal;font-size:4.23333311px;line-height:1.25;font-family:Futura;-inkscape-font-specification:Futura;letter-spacing:0px;word-spacing:0px;fill:#000000;fill-opacity:1;stroke:none;stroke-width:0.26458332"
       x="26.401007"
       y="293.68817"
       id="text3636"><tspan
         sodipodi:role="line"
         id="tspan3634"
         x="26.401007"
         y="293.68817"
         style="font-size:3.52777767px;stroke-width:0.26458332">out 5</tspan></text>
    <text
       id="text3640"
       y="293.68817"
       x="41.641003"
       style="font-style:normal;font-variant:normal;font-weight:normal;font-stretch:normal;font-size:4.23333311px;line-height:1.25;font-family:Futura;-inkscape-font-specification:Futura;letter-spacing:0px;word-spacing:0px;fill:#000000;fill-opacity:1;stroke:none;stroke-width:0.26458332"
       xml:space="preserve"><tspan
         style="font-size:3.52777767px;stroke-width:0.26458332"
         y="293.68817"
         x="41.641003"
         id="tspan3638"
         sodipodi:role="line">out 6</tspan></text>
  </g>
  <g
     inkscape:groupmode="layer"
     id="layer2"
     inkscape:label="components"
     style="display:inline">
    <circle
       style="display:inline;opacity:1;vector-effect:none;fill:#ff0000;fill-opacity:1;fill-rule:evenodd;stroke:none;stroke-width:1;stroke-linecap:butt;stroke-linejoin:miter;stroke-miterlimit:4;stroke-dasharray:none;stroke-dashoffset:0;stroke-opacity:1;paint-order:normal"
       id="path4954"
       cx="15.239999"
       cy="66.613007"
       r="4"
       inkscape:label="pitch" />
    <circle
       r="4"
       cy="85.663002"
       cx="30.479998"
       id="circle4956"
       style="display:inline;opacity:1;vector-effect:none;fill:#00ff00;fill-opacity:1;fill-rule:evenodd;stroke:none;stroke-width:1;stroke-linecap:butt;stroke-linejoin:miter;stroke-miterlimit:4;stroke-dasharray:none;stroke-dashoffset:0;stroke-opacity:1;paint-order:normal"
       inkscape:label="pitch" />
    <circle
       style="display:inline;opacity:1;vector-effect:none;fill:#0000ff;fill-opacity:1;fill-rule:evenodd;stroke:none;stroke-width:1;stroke-linecap:butt;stroke-linejoin:miter;stroke-miterlimit:4;stroke-dasharray:none;stroke-dashoffset:0;stroke-opacity:1;paint-order:normal"
       id="circle4958"
       cx="15.229664"
       cy="117.51009"
       r="4"
       inkscape:label="sine" />
    <circle
       inkscape:label="sine"
       r="4"
       cy="117.51009"
       cx="30.469664"
       id="circle861"
       style="display:inline;opacity:1;vector-effect:none;fill:#0000ff;fill-opacity:1;fill-rule:evenodd;stroke:none;stroke-width:1;stroke-linecap:butt;stroke-linejoin:miter;stroke-miterlimit:4;stroke-dasharray:none;stroke-dashoffset:0;stroke-opacity:1;paint-order:normal" />
    <circle
       style="display:inline;opacity:1;vector-effect:none;fill:#0000ff;fill-opacity:1;fill-rule:evenodd;stroke:none;stroke-width:1;stroke-linecap:butt;stroke-linejoin:miter;stroke-miterlimit:4;stroke-dasharray:none;stroke-dashoffset:0;stroke-opacity:1;paint-order:normal"
       id="circle863"
       cx="30.469664"
       cy="117.51009"
       r="4"
       inkscape:label="sine" />
    <circle
       inkscape:label="sine"
       r="4"
       cy="117.51009"
       cx="45.709663"
       id="circle865"
       style="display:inline;opacity:1;vector-effect:none;fill:#0000ff;fill-opacity:1;fill-rule:evenodd;stroke:none;stroke-width:1;stroke-linecap:butt;stroke-linejoin:miter;stroke-miterlimit:4;stroke-dasharray:none;stroke-dashoffset:0;stroke-opacity:1;paint-order:normal" />
    <circle
       inkscape:label="sine"
       r="4"
       cy="101.65749"
       cx="15.239998"
       id="circle871"
       style="display:inline;opacity:1;vector-effect:none;fill:#0000ff;fill-opacity:1;fill-rule:evenodd;stroke:none;stroke-width:1;stroke-linecap:butt;stroke-linejoin:miter;stroke-miterlimit:4;stroke-dasharray:none;stroke-dashoffset:0;stroke-opacity:1;paint-order:normal" />
    <circle
       style="display:inline;opacity:1;vector-effect:none;fill:#0000ff;fill-opacity:1;fill-rule:evenodd;stroke:none;stroke-width:1;stroke-linecap:butt;stroke-linejoin:miter;stroke-miterlimit:4;stroke-dasharray:none;stroke-dashoffset:0;stroke-opacity:1;paint-order:normal"
       id="circle873"
       cx="30.48"
       cy="101.65749"
       r="4"
       inkscape:label="sine" />
    <circle
       inkscape:label="sine"
       r="4"
       cy="101.65749"
       cx="45.719997"
       id="circle875"
       style="display:inline;opacity:1;vector-effect:none;fill:#0000ff;fill-opacity:1;fill-rule:evenodd;stroke:none;stroke-width:1;stroke-linecap:butt;stroke-linejoin:miter;stroke-miterlimit:4;stroke-dasharray:none;stroke-dashoffset:0;stroke-opacity:1;paint-order:normal" />
    <circle
       inkscape:label="pitch"
       r="4"
       cy="66.613007"
       cx="45.719997"
       id="circle879"
       style="display:inline;opacity:1;vector-effect:none;fill:#ff0000;fill-opacity:1;fill-rule:evenodd;stroke:none;stroke-width:1;stroke-linecap:butt;stroke-linejoin:miter;stroke-miterlimit:4;stroke-dasharray:none;stroke-dashoffset:0;stroke-opacity:1;paint-order:normal" />
    <circle
       style="display:inline;opacity:1;vector-effect:none;fill:#ff0000;fill-opacity:1;fill-rule:evenodd;stroke:none;stroke-width:1;stroke-linecap:butt;stroke-linejoin:miter;stroke-miterlimit:4;stroke-dasharray:none;stroke-dashoffset:0;stroke-opacity:1;paint-order:normal"
       id="circle885"
       cx="45.719997"
       cy="47.563011"
       r="4"
       inkscape:label="pitch" />
    <circle
       inkscape:label="pitch"
       r="4"
       cy="28.513012"
       cx="45.719997"
       id="circle887"
       style="display:inline;opacity:1;vector-effect:none;fill:#ff0000;fill-opacity:1;fill-rule:evenodd;stroke:none;stroke-width:1;stroke-linecap:butt;stroke-linejoin:miter;stroke-miterlimit:4;stroke-dasharray:none;stroke-dashoffset:0;stroke-opacity:1;paint-order:normal" />
    <circle
       inkscape:label="pitch"
       r="4"
       cy="47.563007"
       cx="15.239999"
       id="circle893"
       style="display:inline;opacity:1;vector-effect:none;fill:#ff0000;fill-opacity:1;fill-rule:evenodd;stroke:none;stroke-width:1;stroke-linecap:butt;stroke-linejoin:miter;stroke-miterlimit:4;stroke-dasharray:none;stroke-dashoffset:0;stroke-opacity:1;paint-order:normal" />
    <circle
       style="display:inline;opacity:1;vector-effect:none;fill:#ff0000;fill-opacity:1;fill-rule:evenodd;stroke:none;stroke-width:1;stroke-linecap:butt;stroke-linejoin:miter;stroke-miterlimit:4;stroke-dasharray:none;stroke-dashoffset:0;stroke-opacity:1;paint-order:normal"
       id="circle895"
       cx="15.239999"
       cy="28.513008"
       r="4"
       inkscape:label="pitch" />
    <text
       xml:space="preserve"
       style="font-style:normal;font-variant:normal;font-weight:normal;font-stretch:normal;font-size:4.23333311px;line-height:1.25;font-family:Futura;-inkscape-font-specification:Futura;letter-spacing:0px;word-spacing:0px;fill:#000000;fill-opacity:1;stroke:none;stroke-width:0.26458332"
       x="9.8573818"
       y="38.926342"
       id="text905"><tspan
         sodipodi:role="line"
         id="tspan903"
         x="9.8573818"
         y="38.926342"
         style="stroke-width:0.26458332">shift 1</tspan></text>
    <text
       id="text909"
       y="38.926338"
       x="40.337379"
       style="font-style:normal;font-variant:normal;font-weight:normal;font-stretch:normal;font-size:4.23333311px;line-height:1.25;font-family:Futura;-inkscape-font-specification:Futura;letter-spacing:0px;word-spacing:0px;fill:#000000;fill-opacity:1;stroke:none;stroke-width:0.26458332"
       xml:space="preserve"><tspan
         style="stroke-width:0.26458332"
         y="38.926338"
         x="40.337379"
         id="tspan907"
         sodipodi:role="line">shift 2</tspan></text>
    <text
       id="text913"
       y="57.976337"
       x="40.337379"
       style="font-style:normal;font-variant:normal;font-weight:normal;font-stretch:normal;font-size:4.23333311px;line-height:1.25;font-family:Futura;-inkscape-font-specification:Futura;letter-spacing:0px;word-spacing:0px;fill:#000000;fill-opacity:1;stroke:none;stroke-width:0.26458332"
       xml:space="preserve"><tspan
         style="stroke-width:0.26458332"
         y="57.976337"
         x="40.337379"
         id="tspan911"
         sodipodi:role="line">shift 4</tspan></text>
    <text
       xml:space="preserve"
       style="font-style:normal;font-variant:normal;font-weight:normal;font-stretch:normal;font-size:4.23333311px;line-height:1.25;font-family:Futura;-inkscape-font-specification:Futura;letter-spacing:0px;word-spacing:0px;fill:#000000;fill-opacity:1;stroke:none;stroke-width:0.26458332"
       x="9.4584398"
       y="57.976337"
       id="text917"><tspan
         sodipodi:role="line"
         id="tspan915"
         x="9.4584398"
         y="57.976337"
         style="stroke-width:0.26458332">shift 3</tspan></text>
    <text
       id="text921"
       y="77.026344"
       x="9.5648937"
       style="font-style:normal;font-variant:normal;font-weight:normal;font-stretch:normal;font-size:4.23333311px;line-height:1.25;font-family:Futura;-inkscape-font-specification:Futura;letter-spacing:0px;word-spacing:0px;fill:#000000;fill-opacity:1;stroke:none;stroke-width:0.26458332"
       xml:space="preserve"><tspan
         style="stroke-width:0.26458332"
         y="77.026344"
         x="9.5648937"
         id="tspan919"
         sodipodi:role="line">shift 5</tspan></text>
    <text
       xml:space="preserve"
       style="font-style:normal;font-variant:normal;font-weight:normal;font-stretch:normal;font-size:4.23333311px;line-height:1.25;font-family:Futura;-inkscape-font-specification:Futura;letter-spacing:0px;word-spacing:0px;fill:#000000;fill-opacity:1;stroke:none;stroke-width:0.26458332"
       x="40.014919"
       y="77.026337"
       id="text925"><tspan
         sodipodi:role="line"
         id="tspan923"
         x="40.014919"
         y="77.026337"
         style="stroke-width:0.26458332">shift 6</tspan></text>
  </g>
  <g
     inkscape:groupmode="layer"
     id="layer3"
     inkscape:label="Knobs"
     style="display:inline">
    <g
       id="g2012"
       transform="matrix(0.26457966,0,0,-0.26457966,-302.00782,692.68788)"
       style="stroke-width:1.33335185">
      <g
         transform="translate(1332.2646,2366.2998)"
         id="g6443"
         style="stroke-width:1.33335185">
        <path
           inkscape:connector-curvature="0"
           id="path6445"
           style="fill:#aaaaaa;fill-opacity:1;fill-rule:nonzero;stroke:none;stroke-width:1.33335185"
           d="m 0,0 c 0,-9.941 -8.06,-18 -18,-18 -9.941,0 -18,8.059 -18,18 0,9.941 8.059,18 18,18 C -8.06,18 0,9.941 0,0" />
      </g>
      <g
         transform="translate(1332.1631,2368.2021)"
         id="g6447"
         style="stroke-width:1.33335185">
        <path
           inkscape:connector-curvature="0"
           id="path6449"
           style="fill:#000000;fill-opacity:1;fill-rule:evenodd;stroke:none;stroke-width:1.33335185"
           d="m 0,0 c -0.79,1.279 -2.12,2.537 -2.86,4.327 -0.74,1.784 -0.691,3.609 -1.033,5.067 -0.805,0.997 -1.711,1.902 -2.709,2.708 -1.459,0.341 -3.282,0.293 -5.068,1.033 -1.79,0.742 -3.048,2.069 -4.325,2.86 -0.625,0.066 -1.26,0.104 -1.902,0.104 -0.644,0 -1.279,-0.038 -1.903,-0.104 -1.279,-0.791 -2.537,-2.118 -4.327,-2.86 -1.784,-0.74 -3.607,-0.692 -5.067,-1.033 -0.997,-0.806 -1.904,-1.711 -2.708,-2.708 -0.342,-1.458 -0.294,-3.283 -1.035,-5.067 -0.74,-1.79 -2.069,-3.048 -2.858,-4.327 -0.066,-0.625 -0.103,-1.26 -0.103,-1.902 0,-0.643 0.037,-1.278 0.103,-1.905 0.789,-1.277 2.118,-2.535 2.858,-4.325 0.741,-1.784 0.693,-3.609 1.035,-5.066 0.804,-0.998 1.711,-1.904 2.708,-2.709 1.46,-0.342 3.283,-0.293 5.067,-1.032 1.79,-0.743 3.048,-2.071 4.327,-2.861 0.624,-0.065 1.259,-0.103 1.903,-0.103 0.642,0 1.277,0.038 1.902,0.103 1.277,0.79 2.535,2.118 4.325,2.861 1.786,0.739 3.609,0.69 5.068,1.032 0.998,0.805 1.904,1.711 2.709,2.709 0.342,1.457 0.293,3.282 1.033,5.066 0.74,1.79 2.07,3.048 2.86,4.325 0.065,0.627 0.102,1.262 0.102,1.905 C 0.102,-1.26 0.065,-0.625 0,0" />
      </g>
      <g
         transform="translate(1314.8633,2384.2314)"
         id="g6451"
         style="stroke-width:1.33335185">
        <path
           inkscape:connector-curvature="0"
           id="path6453"
           style="fill:#ffffff;fill-opacity:1;fill-rule:evenodd;stroke:none;stroke-width:1.33335185"
           d="M 0,0 C -0.195,0.045 -0.393,0.069 -0.598,0.069 -0.804,0.069 -1.002,0.045 -1.196,0 V -18.157 H 0 Z" />
      </g>
    </g>
    <g
       style="stroke-width:1.33335185"
       transform="matrix(0.26457966,0,0,-0.26457966,-302.00775,673.63789)"
       id="g2807">
      <g
         style="stroke-width:1.33335185"
         id="g2797"
         transform="translate(1332.2646,2366.2998)">
        <path
           d="m 0,0 c 0,-9.941 -8.06,-18 -18,-18 -9.941,0 -18,8.059 -18,18 0,9.941 8.059,18 18,18 C -8.06,18 0,9.941 0,0"
           style="fill:#aaaaaa;fill-opacity:1;fill-rule:nonzero;stroke:none;stroke-width:1.33335185"
           id="path2795"
           inkscape:connector-curvature="0" />
      </g>
      <g
         style="stroke-width:1.33335185"
         id="g2801"
         transform="translate(1332.1631,2368.2021)">
        <path
           d="m 0,0 c -0.79,1.279 -2.12,2.537 -2.86,4.327 -0.74,1.784 -0.691,3.609 -1.033,5.067 -0.805,0.997 -1.711,1.902 -2.709,2.708 -1.459,0.341 -3.282,0.293 -5.068,1.033 -1.79,0.742 -3.048,2.069 -4.325,2.86 -0.625,0.066 -1.26,0.104 -1.902,0.104 -0.644,0 -1.279,-0.038 -1.903,-0.104 -1.279,-0.791 -2.537,-2.118 -4.327,-2.86 -1.784,-0.74 -3.607,-0.692 -5.067,-1.033 -0.997,-0.806 -1.904,-1.711 -2.708,-2.708 -0.342,-1.458 -0.294,-3.283 -1.035,-5.067 -0.74,-1.79 -2.069,-3.048 -2.858,-4.327 -0.066,-0.625 -0.103,-1.26 -0.103,-1.902 0,-0.643 0.037,-1.278 0.103,-1.905 0.789,-1.277 2.118,-2.535 2.858,-4.325 0.741,-1.784 0.693,-3.609 1.035,-5.066 0.804,-0.998 1.711,-1.904 2.708,-2.709 1.46,-0.342 3.283,-0.293 5.067,-1.032 1.79,-0.743 3.048,-2.071 4.327,-2.861 0.624,-0.065 1.259,-0.103 1.903,-0.103 0.642,0 1.277,0.038 1.902,0.103 1.277,0.79 2.535,2.118 4.325,2.861 1.786,0.739 3.609,0.69 5.068,1.032 0.998,0.805 1.904,1.711 2.709,2.709 0.342,1.457 0.293,3.282 1.033,5.066 0.74,1.79 2.07,3.048 2.86,4.325 0.065,0.627 0.102,1.262 0.102,1.905 C 0.102,-1.26 0.065,-0.625 0,0"
           style="fill:#000000;fill-opacity:1;fill-rule:evenodd;stroke:none;stroke-width:1.33335185"
           id="path2799"
           inkscape:connector-curvature="0" />
      </g>
      <g
         style="stroke-width:1.33335185"
         id="g2805"
         transform="translate(1314.8633,2384.2314)">
        <path
           d="M 0,0 C -0.195,0.045 -0.393,0.069 -0.598,0.069 -0.804,0.069 -1.002,0.045 -1.196,0 V -18.157 H 0 Z"
           style="fill:#ffffff;fill-opacity:1;fill-rule:evenodd;stroke:none;stroke-width:1.33335185"
           id="path2803"
           inkscape:connector-curvature="0" />
      </g>
    </g>
    <g
       id="g2821"
       transform="matrix(0.26457966,0,0,-0.26457966,-302.00769,654.58781)"
       style="stroke-width:1.33335185">
      <g
         transform="translate(1332.2646,2366.2998)"
         id="g2811"
         style="stroke-width:1.33335185">
        <path
           inkscape:connector-curvature="0"
           id="path2809"
           style="fill:#aaaaaa;fill-opacity:1;fill-rule:nonzero;stroke:none;stroke-width:1.33335185"
           d="m 0,0 c 0,-9.941 -8.06,-18 -18,-18 -9.941,0 -18,8.059 -18,18 0,9.941 8.059,18 18,18 C -8.06,18 0,9.941 0,0" />
      </g>
      <g
         transform="translate(1332.1631,2368.2021)"
         id="g2815"
         style="stroke-width:1.33335185">
        <path
           inkscape:connector-curvature="0"
           id="path2813"
           style="fill:#000000;fill-opacity:1;fill-rule:evenodd;stroke:none;stroke-width:1.33335185"
           d="m 0,0 c -0.79,1.279 -2.12,2.537 -2.86,4.327 -0.74,1.784 -0.691,3.609 -1.033,5.067 -0.805,0.997 -1.711,1.902 -2.709,2.708 -1.459,0.341 -3.282,0.293 -5.068,1.033 -1.79,0.742 -3.048,2.069 -4.325,2.86 -0.625,0.066 -1.26,0.104 -1.902,0.104 -0.644,0 -1.279,-0.038 -1.903,-0.104 -1.279,-0.791 -2.537,-2.118 -4.327,-2.86 -1.784,-0.74 -3.607,-0.692 -5.067,-1.033 -0.997,-0.806 -1.904,-1.711 -2.708,-2.708 -0.342,-1.458 -0.294,-3.283 -1.035,-5.067 -0.74,-1.79 -2.069,-3.048 -2.858,-4.327 -0.066,-0.625 -0.103,-1.26 -0.103,-1.902 0,-0.643 0.037,-1.278 0.103,-1.905 0.789,-1.277 2.118,-2.535 2.858,-4.325 0.741,-1.784 0.693,-3.609 1.035,-5.066 0.804,-0.998 1.711,-1.904 2.708,-2.709 1.46,-0.342 3.283,-0.293 5.067,-1.032 1.79,-0.743 3.048,-2.071 4.327,-2.861 0.624,-0.065 1.259,-0.103 1.903,-0.103 0.642,0 1.277,0.038 1.902,0.103 1.277,0.79 2.535,2.118 4.325,2.861 1.786,0.739 3.609,0.69 5.068,1.032 0.998,0.805 1.904,1.711 2.709,2.709 0.342,1.457 0.293,3.282 1.033,5.066 0.74,1.79 2.07,3.048 2.86,4.325 0.065,0.627 0.102,1.262 0.102,1.905 C 0.102,-1.26 0.065,-0.625 0,0" />
      </g>
      <g
         transform="translate(1314.8633,2384.2314)"
         id="g2819"
         style="stroke-width:1.33335185">
        <path
           inkscape:connector-curvature="0"
           id="path2817"
           style="fill:#ffffff;fill-opacity:1;fill-rule:evenodd;stroke:none;stroke-width:1.33335185"
           d="M 0,0 C -0.195,0.045 -0.393,0.069 -0.598,0.069 -0.804,0.069 -1.002,0.045 -1.196,0 V -18.157 H 0 Z" />
      </g>
    </g>
    <g
       style="stroke-width:1.33335185"
       transform="matrix(0.26457966,0,0,-0.26457966,-332.48781,654.58788)"
       id="g2835">
      <g
         style="stroke-width:1.33335185"
         id="g2825"
         transform="translate(1332.2646,2366.2998)">
        <path
           d="m 0,0 c 0,-9.941 -8.06,-18 -18,-18 -9.941,0 -18,8.059 -18,18 0,9.941 8.059,18 18,18 C -8.06,18 0,9.941 0,0"
           style="fill:#aaaaaa;fill-opacity:1;fill-rule:nonzero;stroke:none;stroke-width:1.33335185"
           id="path2823"
           inkscape:connector-curvature="0" />
      </g>
      <g
         style="stroke-width:1.33335185"
         id="g2829"
         transform="translate(1332.1631,2368.2021)">
        <path
           d="m 0,0 c -0.79,1.279 -2.12,2.537 -2.86,4.327 -0.74,1.784 -0.691,3.609 -1.033,5.067 -0.805,0.997 -1.711,1.902 -2.709,2.708 -1.459,0.341 -3.282,0.293 -5.068,1.033 -1.79,0.742 -3.048,2.069 -4.325,2.86 -0.625,0.066 -1.26,0.104 -1.902,0.104 -0.644,0 -1.279,-0.038 -1.903,-0.104 -1.279,-0.791 -2.537,-2.118 -4.327,-2.86 -1.784,-0.74 -3.607,-0.692 -5.067,-1.033 -0.997,-0.806 -1.904,-1.711 -2.708,-2.708 -0.342,-1.458 -0.294,-3.283 -1.035,-5.067 -0.74,-1.79 -2.069,-3.048 -2.858,-4.327 -0.066,-0.625 -0.103,-1.26 -0.103,-1.902 0,-0.643 0.037,-1.278 0.103,-1.905 0.789,-1.277 2.118,-2.535 2.858,-4.325 0.741,-1.784 0.693,-3.609 1.035,-5.066 0.804,-0.998 1.711,-1.904 2.708,-2.709 1.46,-0.342 3.283,-0.293 5.067,-1.032 1.79,-0.743 3.048,-2.071 4.327,-2.861 0.624,-0.065 1.259,-0.103 1.903,-0.103 0.642,0 1.277,0.038 1.902,0.103 1.277,0.79 2.535,2.118 4.325,2.861 1.786,0.739 3.609,0.69 5.068,1.032 0.998,0.805 1.904,1.711 2.709,2.709 0.342,1.457 0.293,3.282 1.033,5.066 0.74,1.79 2.07,3.048 2.86,4.325 0.065,0.627 0.102,1.262 0.102,1.905 C 0.102,-1.26 0.065,-0.625 0,0"
           style="fill:#000000;fill-opacity:1;fill-rule:evenodd;stroke:none;stroke-width:1.33335185"
           id="path2827"
           inkscape:connector-curvature="0" />
      </g>
      <g
         style="stroke-width:1.33335185"
         id="g2833"
         transform="translate(1314.8633,2384.2314)">
        <path
           d="M 0,0 C -0.195,0.045 -0.393,0.069 -0.598,0.069 -0.804,0.069 -1.002,0.045 -1.196,0 V -18.157 H 0 Z"
           style="fill:#ffffff;fill-opacity:1;fill-rule:evenodd;stroke:none;stroke-width:1.33335185"
           id="path2831"
           inkscape:connector-curvature="0" />
      </g>
    </g>
    <g
       id="g2849"
       transform="matrix(0.26457966,0,0,-0.26457966,-332.48781,673.63789)"
       style="stroke-width:1.33335185">
      <g
         transform="translate(1332.2646,2366.2998)"
         id="g2839"
         style="stroke-width:1.33335185">
        <path
           inkscape:connector-curvature="0"
           id="path2837"
           style="fill:#aaaaaa;fill-opacity:1;fill-rule:nonzero;stroke:none;stroke-width:1.33335185"
           d="m 0,0 c 0,-9.941 -8.06,-18 -18,-18 -9.941,0 -18,8.059 -18,18 0,9.941 8.059,18 18,18 C -8.06,18 0,9.941 0,0" />
      </g>
      <g
         transform="translate(1332.1631,2368.2021)"
         id="g2843"
         style="stroke-width:1.33335185">
        <path
           inkscape:connector-curvature="0"
           id="path2841"
           style="fill:#000000;fill-opacity:1;fill-rule:evenodd;stroke:none;stroke-width:1.33335185"
           d="m 0,0 c -0.79,1.279 -2.12,2.537 -2.86,4.327 -0.74,1.784 -0.691,3.609 -1.033,5.067 -0.805,0.997 -1.711,1.902 -2.709,2.708 -1.459,0.341 -3.282,0.293 -5.068,1.033 -1.79,0.742 -3.048,2.069 -4.325,2.86 -0.625,0.066 -1.26,0.104 -1.902,0.104 -0.644,0 -1.279,-0.038 -1.903,-0.104 -1.279,-0.791 -2.537,-2.118 -4.327,-2.86 -1.784,-0.74 -3.607,-0.692 -5.067,-1.033 -0.997,-0.806 -1.904,-1.711 -2.708,-2.708 -0.342,-1.458 -0.294,-3.283 -1.035,-5.067 -0.74,-1.79 -2.069,-3.048 -2.858,-4.327 -0.066,-0.625 -0.103,-1.26 -0.103,-1.902 0,-0.643 0.037,-1.278 0.103,-1.905 0.789,-1.277 2.118,-2.535 2.858,-4.325 0.741,-1.784 0.693,-3.609 1.035,-5.066 0.804,-0.998 1.711,-1.904 2.708,-2.709 1.46,-0.342 3.283,-0.293 5.067,-1.032 1.79,-0.743 3.048,-2.071 4.327,-2.861 0.624,-0.065 1.259,-0.103 1.903,-0.103 0.642,0 1.277,0.038 1.902,0.103 1.277,0.79 2.535,2.118 4.325,2.861 1.786,0.739 3.609,0.69 5.068,1.032 0.998,0.805 1.904,1.711 2.709,2.709 0.342,1.457 0.293,3.282 1.033,5.066 0.74,1.79 2.07,3.048 2.86,4.325 0.065,0.627 0.102,1.262 0.102,1.905 C 0.102,-1.26 0.065,-0.625 0,0" />
      </g>
      <g
         transform="translate(1314.8633,2384.2314)"
         id="g2847"
         style="stroke-width:1.33335185">
        <path
           inkscape:connector-curvature="0"
           id="path2845"
           style="fill:#ffffff;fill-opacity:1;fill-rule:evenodd;stroke:none;stroke-width:1.33335185"
           d="M 0,0 C -0.195,0.045 -0.393,0.069 -0.598,0.069 -0.804,0.069 -1.002,0.045 -1.196,0 V -18.157 H 0 Z" />
      </g>
    </g>
    <g
       style="stroke-width:1.33335185"
       transform="matrix(0.26457966,0,0,-0.26457966,-332.48781,692.68788)"
       id="g2863">
      <g
         style="stroke-width:1.33335185"
         id="g2853"
         transform="translate(1332.2646,2366.2998)">
        <path
           d="m 0,0 c 0,-9.941 -8.06,-18 -18,-18 -9.941,0 -18,8.059 -18,18 0,9.941 8.059,18 18,18 C -8.06,18 0,9.941 0,0"
           style="fill:#aaaaaa;fill-opacity:1;fill-rule:nonzero;stroke:none;stroke-width:1.33335185"
           id="path2851"
           inkscape:connector-curvature="0" />
      </g>
      <g
         style="stroke-width:1.33335185"
         id="g2857"
         transform="translate(1332.1631,2368.2021)">
        <path
           d="m 0,0 c -0.79,1.279 -2.12,2.537 -2.86,4.327 -0.74,1.784 -0.691,3.609 -1.033,5.067 -0.805,0.997 -1.711,1.902 -2.709,2.708 -1.459,0.341 -3.282,0.293 -5.068,1.033 -1.79,0.742 -3.048,2.069 -4.325,2.86 -0.625,0.066 -1.26,0.104 -1.902,0.104 -0.644,0 -1.279,-0.038 -1.903,-0.104 -1.279,-0.791 -2.537,-2.118 -4.327,-2.86 -1.784,-0.74 -3.607,-0.692 -5.067,-1.033 -0.997,-0.806 -1.904,-1.711 -2.708,-2.708 -0.342,-1.458 -0.294,-3.283 -1.035,-5.067 -0.74,-1.79 -2.069,-3.048 -2.858,-4.327 -0.066,-0.625 -0.103,-1.26 -0.103,-1.902 0,-0.643 0.037,-1.278 0.103,-1.905 0.789,-1.277 2.118,-2.535 2.858,-4.325 0.741,-1.784 0.693,-3.609 1.035,-5.066 0.804,-0.998 1.711,-1.904 2.708,-2.709 1.46,-0.342 3.283,-0.293 5.067,-1.032 1.79,-0.743 3.048,-2.071 4.327,-2.861 0.624,-0.065 1.259,-0.103 1.903,-0.103 0.642,0 1.277,0.038 1.902,0.103 1.277,0.79 2.535,2.118 4.325,2.861 1.786,0.739 3.609,0.69 5.068,1.032 0.998,0.805 1.904,1.711 2.709,2.709 0.342,1.457 0.293,3.282 1.033,5.066 0.74,1.79 2.07,3.048 2.86,4.325 0.065,0.627 0.102,1.262 0.102,1.905 C 0.102,-1.26 0.065,-0.625 0,0"
           style="fill:#000000;fill-opacity:1;fill-rule:evenodd;stroke:none;stroke-width:1.33335185"
           id="path2855"
           inkscape:connector-curvature="0" />
      </g>
      <g
         style="stroke-width:1.33335185"
         id="g2861"
         transform="translate(1314.8633,2384.2314)">
        <path
           d="M 0,0 C -0.195,0.045 -0.393,0.069 -0.598,0.069 -0.804,0.069 -1.002,0.045 -1.196,0 V -18.157 H 0 Z"
           style="fill:#ffffff;fill-opacity:1;fill-rule:evenodd;stroke:none;stroke-width:1.33335185"
           id="path2859"
           inkscape:connector-curvature="0" />
      </g>
    </g>
  </g>
  <g
     inkscape:groupmode="layer"
     id="layer4"
     inkscape:label="Jacks">
    <g
       transform="translate(-46.09272,-167.50479)"
       id="g3565">
      <path
         style="fill:#e6e6e6;fill-opacity:1;fill-rule:nonzero;stroke:#636663;stroke-width:0.25;stroke-miterlimit:4;stroke-dasharray:none;stroke-opacity:1"
         d="m 76.57272,257.22059 c -2.235179,0 -4.05281,-1.81762 -4.05281,-4.05282 0,-2.23516 1.817631,-4.05281 4.05281,-4.05281 2.235176,0 4.05281,1.81765 4.05281,4.05281 0,2.2352 -1.817634,4.05282 -4.05281,4.05282"
         id="path7255"
         inkscape:connector-curvature="0" />
      <path
         style="fill:#e6e6e6;fill-opacity:1;fill-rule:nonzero;stroke:#636663;stroke-width:0.25;stroke-miterlimit:4;stroke-dasharray:none;stroke-opacity:1"
         d="m 76.57272,256.08648 c -1.609548,0 -2.918685,-1.30916 -2.918685,-2.91871 0,-1.60954 1.309137,-2.91867 2.918685,-2.91867 1.609549,0 2.918682,1.30913 2.918682,2.91867 0,1.60955 -1.309133,2.91871 -2.918682,2.91871"
         id="path7261"
         inkscape:connector-curvature="0" />
      <path
         style="fill:#000000;fill-opacity:1;fill-rule:nonzero;stroke:none;stroke-width:0.35277775"
         d="m 78.372437,253.16777 c 0,0.99357 -0.806153,1.79974 -1.799717,1.79974 -0.993567,0 -1.79972,-0.80617 -1.79972,-1.79974 0,-0.99356 0.806153,-1.79969 1.79972,-1.79969 0.993564,0 1.799717,0.80613 1.799717,1.79969"
         id="path7265"
         inkscape:connector-curvature="0" />
    </g>
    <g
       id="g3578"
       transform="translate(-30.852723,-151.51028)">
      <path
         inkscape:connector-curvature="0"
         id="path3572"
         d="m 76.57272,257.22059 c -2.235179,0 -4.05281,-1.81762 -4.05281,-4.05282 0,-2.23516 1.817631,-4.05281 4.05281,-4.05281 2.235176,0 4.05281,1.81765 4.05281,4.05281 0,2.2352 -1.817634,4.05282 -4.05281,4.05282"
         style="fill:#e6e6e6;fill-opacity:1;fill-rule:nonzero;stroke:#636663;stroke-width:0.25;stroke-miterlimit:4;stroke-dasharray:none;stroke-opacity:1" />
      <path
         inkscape:connector-curvature="0"
         id="path3574"
         d="m 76.57272,256.08648 c -1.609548,0 -2.918685,-1.30916 -2.918685,-2.91871 0,-1.60954 1.309137,-2.91867 2.918685,-2.91867 1.609549,0 2.918682,1.30913 2.918682,2.91867 0,1.60955 -1.309133,2.91871 -2.918682,2.91871"
         style="fill:#e6e6e6;fill-opacity:1;fill-rule:nonzero;stroke:#636663;stroke-width:0.25;stroke-miterlimit:4;stroke-dasharray:none;stroke-opacity:1" />
      <path
         inkscape:connector-curvature="0"
         id="path3576"
         d="m 78.372437,253.16777 c 0,0.99357 -0.806153,1.79974 -1.799717,1.79974 -0.993567,0 -1.79972,-0.80617 -1.79972,-1.79974 0,-0.99356 0.806153,-1.79969 1.79972,-1.79969 0.993564,0 1.799717,0.80613 1.799717,1.79969"
         style="fill:#000000;fill-opacity:1;fill-rule:nonzero;stroke:none;stroke-width:0.35277775" />
    </g>
    <g
       transform="translate(-46.092719,-151.51031)"
       id="g3586">
      <path
         style="fill:#e6e6e6;fill-opacity:1;fill-rule:nonzero;stroke:#636663;stroke-width:0.25;stroke-miterlimit:4;stroke-dasharray:none;stroke-opacity:1"
         d="m 76.57272,257.22059 c -2.235179,0 -4.05281,-1.81762 -4.05281,-4.05282 0,-2.23516 1.817631,-4.05281 4.05281,-4.05281 2.235176,0 4.05281,1.81765 4.05281,4.05281 0,2.2352 -1.817634,4.05282 -4.05281,4.05282"
         id="path3580"
         inkscape:connector-curvature="0" />
      <path
         style="fill:#e6e6e6;fill-opacity:1;fill-rule:nonzero;stroke:#636663;stroke-width:0.25;stroke-miterlimit:4;stroke-dasharray:none;stroke-opacity:1"
         d="m 76.57272,256.08648 c -1.609548,0 -2.918685,-1.30916 -2.918685,-2.91871 0,-1.60954 1.309137,-2.91867 2.918685,-2.91867 1.609549,0 2.918682,1.30913 2.918682,2.91867 0,1.60955 -1.309133,2.91871 -2.918682,2.91871"
         id="path3582"
         inkscape:connector-curvature="0" />
      <path
         style="fill:#000000;fill-opacity:1;fill-rule:nonzero;stroke:none;stroke-width:0.35277775"
         d="m 78.372437,253.16777 c 0,0.99357 -0.806153,1.79974 -1.799717,1.79974 -0.993567,0 -1.79972,-0.80617 -1.79972,-1.79974 0,-0.99356 0.806153,-1.79969 1.79972,-1.79969 0.993564,0 1.799717,0.80613 1.799717,1.79969"
         id="path3584"
         inkscape:connector-curvature="0" />
    </g>
    <g
       id="g3594"
       transform="translate(-61.332721,-151.5103)">
      <path
         inkscape:connector-curvature="0"
         id="path3588"
         d="m 76.57272,257.22059 c -2.235179,0 -4.05281,-1.81762 -4.05281,-4.05282 0,-2.23516 1.817631,-4.05281 4.05281,-4.05281 2.235176,0 4.05281,1.81765 4.05281,4.05281 0,2.2352 -1.817634,4.05282 -4.05281,4.05282"
         style="fill:#e6e6e6;fill-opacity:1;fill-rule:nonzero;stroke:#636663;stroke-width:0.25;stroke-miterlimit:4;stroke-dasharray:none;stroke-opacity:1" />
      <path
         inkscape:connector-curvature="0"
         id="path3590"
         d="m 76.57272,256.08648 c -1.609548,0 -2.918685,-1.30916 -2.918685,-2.91871 0,-1.60954 1.309137,-2.91867 2.918685,-2.91867 1.609549,0 2.918682,1.30913 2.918682,2.91867 0,1.60955 -1.309133,2.91871 -2.918682,2.91871"
         style="fill:#e6e6e6;fill-opacity:1;fill-rule:nonzero;stroke:#636663;stroke-width:0.25;stroke-miterlimit:4;stroke-dasharray:none;stroke-opacity:1" />
      <path
         inkscape:connector-curvature="0"
         id="path3592"
         d="m 78.372437,253.16777 c 0,0.99357 -0.806153,1.79974 -1.799717,1.79974 -0.993567,0 -1.79972,-0.80617 -1.79972,-1.79974 0,-0.99356 0.806153,-1.79969 1.79972,-1.79969 0.993564,0 1.799717,0.80613 1.799717,1.79969"
         style="fill:#000000;fill-opacity:1;fill-rule:nonzero;stroke:none;stroke-width:0.35277775" />
    </g>
    <g
       transform="translate(-61.343055,-135.65771)"
       id="g3602">
      <path
         style="fill:#e6e6e6;fill-opacity:1;fill-rule:nonzero;stroke:#636663;stroke-width:0.25;stroke-miterlimit:4;stroke-dasharray:none;stroke-opacity:1"
         d="m 76.57272,257.22059 c -2.235179,0 -4.05281,-1.81762 -4.05281,-4.05282 0,-2.23516 1.817631,-4.05281 4.05281,-4.05281 2.235176,0 4.05281,1.81765 4.05281,4.05281 0,2.2352 -1.817634,4.05282 -4.05281,4.05282"
         id="path3596"
         inkscape:connector-curvature="0" />
      <path
         style="fill:#e6e6e6;fill-opacity:1;fill-rule:nonzero;stroke:#636663;stroke-width:0.25;stroke-miterlimit:4;stroke-dasharray:none;stroke-opacity:1"
         d="m 76.57272,256.08648 c -1.609548,0 -2.918685,-1.30916 -2.918685,-2.91871 0,-1.60954 1.309137,-2.91867 2.918685,-2.91867 1.609549,0 2.918682,1.30913 2.918682,2.91867 0,1.60955 -1.309133,2.91871 -2.918682,2.91871"
         id="path3598"
         inkscape:connector-curvature="0" />
      <path
         style="fill:#000000;fill-opacity:1;fill-rule:nonzero;stroke:none;stroke-width:0.35277775"
         d="m 78.372437,253.16777 c 0,0.99357 -0.806153,1.79974 -1.799717,1.79974 -0.993567,0 -1.79972,-0.80617 -1.79972,-1.79974 0,-0.99356 0.806153,-1.79969 1.79972,-1.79969 0.993564,0 1.799717,0.80613 1.799717,1.79969"
         id="path3600"
         inkscape:connector-curvature="0" />
    </g>
    <g
       id="g3610"
       transform="translate(-46.103054,-135.65771)">
      <path
         inkscape:connector-curvature="0"
         id="path3604"
         d="m 76.57272,257.22059 c -2.235179,0 -4.05281,-1.81762 -4.05281,-4.05282 0,-2.23516 1.817631,-4.05281 4.05281,-4.05281 2.235176,0 4.05281,1.81765 4.05281,4.05281 0,2.2352 -1.817634,4.05282 -4.05281,4.05282"
         style="fill:#e6e6e6;fill-opacity:1;fill-rule:nonzero;stroke:#636663;stroke-width:0.25;stroke-miterlimit:4;stroke-dasharray:none;stroke-opacity:1" />
      <path
         inkscape:connector-curvature="0"
         id="path3606"
         d="m 76.57272,256.08648 c -1.609548,0 -2.918685,-1.30916 -2.918685,-2.91871 0,-1.60954 1.309137,-2.91867 2.918685,-2.91867 1.609549,0 2.918682,1.30913 2.918682,2.91867 0,1.60955 -1.309133,2.91871 -2.918682,2.91871"
         style="fill:#e6e6e6;fill-opacity:1;fill-rule:nonzero;stroke:#636663;stroke-width:0.25;stroke-miterlimit:4;stroke-dasharray:none;stroke-opacity:1" />
      <path
         inkscape:connector-curvature="0"
         id="path3608"
         d="m 78.372437,253.16777 c 0,0.99357 -0.806153,1.79974 -1.799717,1.79974 -0.993567,0 -1.79972,-0.80617 -1.79972,-1.79974 0,-0.99356 0.806153,-1.79969 1.79972,-1.79969 0.993564,0 1.799717,0.80613 1.799717,1.79969"
         style="fill:#000000;fill-opacity:1;fill-rule:nonzero;stroke:none;stroke-width:0.35277775" />
    </g>
    <g
       transform="translate(-30.863056,-135.65771)"
       id="g3618">
      <path
         style="fill:#e6e6e6;fill-opacity:1;fill-rule:nonzero;stroke:#636663;stroke-width:0.25;stroke-miterlimit:4;stroke-dasharray:none;stroke-opacity:1"
         d="m 76.57272,257.22059 c -2.235179,0 -4.05281,-1.81762 -4.05281,-4.05282 0,-2.23516 1.817631,-4.05281 4.05281,-4.05281 2.235176,0 4.05281,1.81765 4.05281,4.05281 0,2.2352 -1.817634,4.05282 -4.05281,4.05282"
         id="path3612"
         inkscape:connector-curvature="0" />
      <path
         style="fill:#e6e6e6;fill-opacity:1;fill-rule:nonzero;stroke:#636663;stroke-width:0.25;stroke-miterlimit:4;stroke-dasharray:none;stroke-opacity:1"
         d="m 76.57272,256.08648 c -1.609548,0 -2.918685,-1.30916 -2.918685,-2.91871 0,-1.60954 1.309137,-2.91867 2.918685,-2.91867 1.609549,0 2.918682,1.30913 2.918682,2.91867 0,1.60955 -1.309133,2.91871 -2.918682,2.91871"
         id="path3614"
         inkscape:connector-curvature="0" />
      <path
         style="fill:#000000;fill-opacity:1;fill-rule:nonzero;stroke:none;stroke-width:0.35277775"
         d="m 78.372437,253.16777 c 0,0.99357 -0.806153,1.79974 -1.799717,1.79974 -0.993567,0 -1.79972,-0.80617 -1.79972,-1.79974 0,-0.99356 0.806153,-1.79969 1.79972,-1.79969 0.993564,0 1.799717,0.80613 1.799717,1.79969"
         id="path3616"
         inkscape:connector-curvature="0" />
    </g>
  </g>
</svg>
